<svg width="122" height="42" viewBox="0 0 122 42" fill="none" xmlns="http://www.w3.org/2000/svg">
<path d="M11.6445 21.5701L5.12785 28.425V38.044H0V0.894714H5.12785V21.6806L24.5709 0.894714H30.4466L15.1699 17.5898L31.5149 38.044H25.5324L11.6445 21.5701Z" fill="white"/>
<path d="M68.9054 35.0588L70.9352 31.0786C73.2855 32.737 76.9177 33.9532 80.4431 33.9532C85.0368 33.9532 86.8529 32.5159 86.8529 30.0835C86.8529 23.7814 69.6532 29.199 69.6532 18.0321C69.6532 12.9462 74.0333 9.62927 80.9772 9.62927C84.5026 9.62927 88.5622 10.6243 90.9124 12.1722L88.7758 16.1525C86.3187 14.4941 83.648 13.9412 80.9772 13.9412C76.704 13.9412 74.5674 15.5997 74.5674 17.811C74.5674 24.4448 91.7671 19.0272 91.7671 29.9729C91.7671 35.0588 87.2802 38.2652 80.0158 38.2652C75.6357 38.3757 71.1489 36.9384 68.9054 35.0588Z" fill="white"/>
<path d="M122 21.0171V38.0439H117.299V34.2847C115.697 36.8277 112.599 38.265 108.326 38.265C102.13 38.265 98.2837 34.8376 98.2837 29.9728C98.2837 25.4397 101.061 21.7911 109.18 21.7911H116.979V20.796C116.979 16.484 114.522 14.0517 109.715 14.0517C106.51 14.0517 103.198 15.2678 101.061 17.0369L99.0315 13.1671C101.809 10.8453 105.869 9.51855 110.249 9.51855C117.834 9.62912 122 13.3883 122 21.0171ZM117.086 29.42V25.4397H109.501C104.587 25.4397 103.198 27.4298 103.198 29.7516C103.198 32.5157 105.441 34.2847 109.18 34.2847C112.919 34.3953 115.911 32.7369 117.086 29.42Z" fill="white"/>
<path d="M53.0946 30.6365V38.1548L56.1927 36.2752V28.7569L53.0946 30.6365Z" fill="white"/>
<path d="M61.641 21.4595L48.9282 13.8307L41.8774 9.62927L34.9335 22.1229L35.0403 33.8426L47.6462 41.4715L48.9282 40.6976V29.6412L54.5902 19.3588L60.359 22.7863V33.8426L61.641 33.0687V21.4595Z" fill="white"/>
</svg>
